<svg xmlns="http://www.w3.org/2000/svg" data-name="Coffe Machine" viewBox="0 0 50 60" x="0px" y="0px"><title>coffe-machine</title><path d="M293.88,328h-44a2.88,2.88,0,0,0-2.87,2.87v11.18a1,1,0,0,0,.95.95H282v25H247v8h44a1,1,0,0,0,1-1V343h4.05a1,1,0,0,0,.95-0.95V331.12A3.13,3.13,0,0,0,293.88,328Z" transform="translate(-247 -328)"/><polygon points="17 14 5 14 5 19 9 19 9 21 13 21 13 19 17 19 17 14"/><path d="M264,357.44V354H253v11a1,1,0,0,0,1,1h9a1,1,0,0,0,1-1v-1.3A3.13,3.13,0,0,0,264,357.44Zm0,5v-3.76A1.88,1.88,0,1,1,264,362.45Z" transform="translate(-247 -328)"/><text x="0" y="63" fill="#000000" font-size="5px" font-weight="bold" font-family="'Helvetica Neue', Helvetica, Arial-Unicode, Arial, Sans-serif">Created by Ismael Ruiz</text><text x="0" y="68" fill="#000000" font-size="5px" font-weight="bold" font-family="'Helvetica Neue', Helvetica, Arial-Unicode, Arial, Sans-serif">from the Noun Project</text></svg>