<svg xmlns:dc="http://purl.org/dc/elements/1.1/" xmlns:cc="http://creativecommons.org/ns#" xmlns:rdf="http://www.w3.org/1999/02/22-rdf-syntax-ns#" xmlns:svg="http://www.w3.org/2000/svg" xmlns="http://www.w3.org/2000/svg" xmlns:sodipodi="http://sodipodi.sourceforge.net/DTD/sodipodi-0.dtd" xmlns:inkscape="http://www.inkscape.org/namespaces/inkscape" version="1.1" x="0px" y="0px" viewBox="0 0 100 125"><g transform="translate(0,-952.36218)"><path d="m 50,963.36219 c -12.1952,0 -24,9.46145 -24,22.84375 0,17.36386 13,20.99996 13,33.15626 l 22,0 c 0,-12.1563 13,-15.7924 13,-33.15626 0,-13.3823 -11.8048,-22.84375 -24,-22.84375 z m -2.2188,5.125 c 1.3033,-0.0617 2.4088,0.60054 2.375,1.90625 0.033,1.0472 -0.8903,2.02978 -1.9374,2.0625 C 40.7587,973.32604 35,979.64873 35,987.36217 c 0,1.5362 0.2281,3.0114 0.6562,4.4063 0.4167,1.0266 -0.221,2.3347 -1.2812,2.6562 -1.0602,0.3216 -2.3074,-0.4149 -2.5312,-1.5 -0.5424,-1.7653 -0.8438,-3.6203 -0.8438,-5.5625 0,-9.71732 7.3396,-17.77368 16.7812,-18.87498 z M 39,1023.3622 l 0,4 22,0 0,-4 -22,0 z m 0,8 c 0,2.2981 1.8895,4 4,4 l 14,0 c 2.1105,0 4,-1.7019 4,-4 l -22,0 z m 7,6 c 0,2.216 1.784,4 4,4 2.216,0 4,-1.784 4,-4 l -8,0 z" style="color:#000000;enable-background:accumulate;" fill="#000000" marker="none" visibility="visible" display="inline" overflow="visible"/></g><text x="0" y="115" fill="#000000" font-size="5px" font-weight="bold" font-family="'Helvetica Neue', Helvetica, Arial-Unicode, Arial, Sans-serif">Created by Numero Uno</text><text x="0" y="120" fill="#000000" font-size="5px" font-weight="bold" font-family="'Helvetica Neue', Helvetica, Arial-Unicode, Arial, Sans-serif">from the Noun Project</text></svg>